<?xml version="1.0" encoding="UTF-8"?>
<svg xmlns="http://www.w3.org/2000/svg" viewBox="0 0 1440 320">
        <path
          fill="#3F51B5"
          fill-opacity="1"
          d="M0,160L48,176C96,192,192,224,288,208C384,192,480,128,576,106.7C672,
          85,768,107,864,144C960,181,1056,235,1152,218.7C1248,203,1344,117,1392,74.7L1440,
          32L1440,320L1392,320C1344,320,1248,320,1152,320C1056,320,960,320,864,320C768,320,
          672,320,576,320C480,320,384,320,288,320C192,320,96,320,48,320L0,320Z"
        ></path>
      </svg>